<mxfile host="app.diagrams.net" modified="2024-06-26T02:13:38.440Z" agent="Mozilla/5.0 (Macintosh; Intel Mac OS X 10_15_7) AppleWebKit/537.36 (KHTML, like Gecko) Chrome/126.0.0.0 Safari/537.36" etag="bLNPNm5C_vi_D76kS6iw" version="23.0.2" type="device">
  <diagram name="Страница — 1" id="65HQDKxReE2ANH29oVUL">
    <mxGraphModel dx="984" dy="574" grid="1" gridSize="10" guides="1" tooltips="1" connect="1" arrows="1" fold="1" page="1" pageScale="1" pageWidth="827" pageHeight="1169" math="0" shadow="0">
      <root>
        <mxCell id="0" />
        <mxCell id="1" parent="0" />
        <mxCell id="v6DdiJtf0vAYisckzw9l-20" style="edgeStyle=orthogonalEdgeStyle;rounded=0;orthogonalLoop=1;jettySize=auto;html=1;entryX=0.5;entryY=0;entryDx=0;entryDy=0;" edge="1" parent="1" source="v6DdiJtf0vAYisckzw9l-1" target="v6DdiJtf0vAYisckzw9l-18">
          <mxGeometry relative="1" as="geometry" />
        </mxCell>
        <mxCell id="v6DdiJtf0vAYisckzw9l-21" style="edgeStyle=orthogonalEdgeStyle;rounded=0;orthogonalLoop=1;jettySize=auto;html=1;exitX=0.25;exitY=1;exitDx=0;exitDy=0;entryX=0.5;entryY=0;entryDx=0;entryDy=0;" edge="1" parent="1" source="v6DdiJtf0vAYisckzw9l-1" target="v6DdiJtf0vAYisckzw9l-17">
          <mxGeometry relative="1" as="geometry" />
        </mxCell>
        <mxCell id="v6DdiJtf0vAYisckzw9l-22" style="edgeStyle=orthogonalEdgeStyle;rounded=0;orthogonalLoop=1;jettySize=auto;html=1;exitX=0.75;exitY=1;exitDx=0;exitDy=0;entryX=0.5;entryY=0;entryDx=0;entryDy=0;" edge="1" parent="1" source="v6DdiJtf0vAYisckzw9l-1" target="v6DdiJtf0vAYisckzw9l-19">
          <mxGeometry relative="1" as="geometry" />
        </mxCell>
        <mxCell id="v6DdiJtf0vAYisckzw9l-28" style="edgeStyle=orthogonalEdgeStyle;rounded=0;orthogonalLoop=1;jettySize=auto;html=1;" edge="1" parent="1" source="v6DdiJtf0vAYisckzw9l-1" target="v6DdiJtf0vAYisckzw9l-23">
          <mxGeometry relative="1" as="geometry" />
        </mxCell>
        <mxCell id="v6DdiJtf0vAYisckzw9l-29" style="edgeStyle=orthogonalEdgeStyle;rounded=0;orthogonalLoop=1;jettySize=auto;html=1;entryX=0;entryY=0.5;entryDx=0;entryDy=0;exitX=1;exitY=0.25;exitDx=0;exitDy=0;" edge="1" parent="1" source="v6DdiJtf0vAYisckzw9l-1" target="v6DdiJtf0vAYisckzw9l-8">
          <mxGeometry relative="1" as="geometry">
            <Array as="points">
              <mxPoint x="580" y="405" />
              <mxPoint x="580" y="280" />
            </Array>
          </mxGeometry>
        </mxCell>
        <mxCell id="v6DdiJtf0vAYisckzw9l-30" style="edgeStyle=orthogonalEdgeStyle;rounded=0;orthogonalLoop=1;jettySize=auto;html=1;exitX=1;exitY=0.5;exitDx=0;exitDy=0;entryX=0;entryY=0.5;entryDx=0;entryDy=0;" edge="1" parent="1" source="v6DdiJtf0vAYisckzw9l-1" target="v6DdiJtf0vAYisckzw9l-7">
          <mxGeometry relative="1" as="geometry">
            <Array as="points">
              <mxPoint x="530" y="420" />
              <mxPoint x="530" y="420" />
            </Array>
          </mxGeometry>
        </mxCell>
        <mxCell id="v6DdiJtf0vAYisckzw9l-1" value="processor" style="rounded=0;whiteSpace=wrap;html=1;" vertex="1" parent="1">
          <mxGeometry x="360" y="390" width="120" height="60" as="geometry" />
        </mxCell>
        <mxCell id="v6DdiJtf0vAYisckzw9l-15" style="edgeStyle=orthogonalEdgeStyle;rounded=0;orthogonalLoop=1;jettySize=auto;html=1;exitX=0.5;exitY=1;exitDx=0;exitDy=0;entryX=0.25;entryY=0;entryDx=0;entryDy=0;" edge="1" parent="1" source="v6DdiJtf0vAYisckzw9l-2" target="v6DdiJtf0vAYisckzw9l-1">
          <mxGeometry relative="1" as="geometry" />
        </mxCell>
        <mxCell id="v6DdiJtf0vAYisckzw9l-2" value="telegram parser" style="rounded=0;whiteSpace=wrap;html=1;" vertex="1" parent="1">
          <mxGeometry x="120" y="250" width="120" height="60" as="geometry" />
        </mxCell>
        <mxCell id="v6DdiJtf0vAYisckzw9l-16" style="edgeStyle=orthogonalEdgeStyle;rounded=0;orthogonalLoop=1;jettySize=auto;html=1;entryX=0.75;entryY=0;entryDx=0;entryDy=0;exitX=0.5;exitY=1;exitDx=0;exitDy=0;" edge="1" parent="1" source="v6DdiJtf0vAYisckzw9l-3" target="v6DdiJtf0vAYisckzw9l-1">
          <mxGeometry relative="1" as="geometry" />
        </mxCell>
        <mxCell id="v6DdiJtf0vAYisckzw9l-3" value="rss parser" style="rounded=0;whiteSpace=wrap;html=1;" vertex="1" parent="1">
          <mxGeometry x="390" y="190" width="120" height="60" as="geometry" />
        </mxCell>
        <mxCell id="v6DdiJtf0vAYisckzw9l-7" value="&lt;meta charset=&quot;utf-8&quot;&gt;&lt;span style=&quot;color: rgb(0, 0, 0); font-family: Helvetica; font-size: 12px; font-style: normal; font-variant-ligatures: normal; font-variant-caps: normal; font-weight: 400; letter-spacing: normal; orphans: 2; text-align: center; text-indent: 0px; text-transform: none; widows: 2; word-spacing: 0px; -webkit-text-stroke-width: 0px; background-color: rgb(251, 251, 251); text-decoration-thickness: initial; text-decoration-style: initial; text-decoration-color: initial; float: none; display: inline !important;&quot;&gt;translator&lt;/span&gt;" style="ellipse;whiteSpace=wrap;html=1;" vertex="1" parent="1">
          <mxGeometry x="670" y="380" width="120" height="80" as="geometry" />
        </mxCell>
        <mxCell id="v6DdiJtf0vAYisckzw9l-8" value="&lt;span style=&quot;color: rgb(0, 0, 0); font-family: Helvetica; font-size: 12px; font-style: normal; font-variant-ligatures: normal; font-variant-caps: normal; font-weight: 400; letter-spacing: normal; orphans: 2; text-align: center; text-indent: 0px; text-transform: none; widows: 2; word-spacing: 0px; -webkit-text-stroke-width: 0px; background-color: rgb(251, 251, 251); text-decoration-thickness: initial; text-decoration-style: initial; text-decoration-color: initial; float: none; display: inline !important;&quot;&gt;file system&lt;/span&gt;" style="ellipse;whiteSpace=wrap;html=1;" vertex="1" parent="1">
          <mxGeometry x="610" y="240" width="120" height="80" as="geometry" />
        </mxCell>
        <mxCell id="v6DdiJtf0vAYisckzw9l-17" value="telegram" style="ellipse;whiteSpace=wrap;html=1;" vertex="1" parent="1">
          <mxGeometry x="120" y="560" width="120" height="80" as="geometry" />
        </mxCell>
        <mxCell id="v6DdiJtf0vAYisckzw9l-18" value="facebook" style="ellipse;whiteSpace=wrap;html=1;" vertex="1" parent="1">
          <mxGeometry x="360" y="560" width="120" height="80" as="geometry" />
        </mxCell>
        <mxCell id="v6DdiJtf0vAYisckzw9l-19" value="instagram" style="ellipse;whiteSpace=wrap;html=1;" vertex="1" parent="1">
          <mxGeometry x="600" y="560" width="120" height="80" as="geometry" />
        </mxCell>
        <mxCell id="v6DdiJtf0vAYisckzw9l-31" style="edgeStyle=orthogonalEdgeStyle;rounded=0;orthogonalLoop=1;jettySize=auto;html=1;entryX=0;entryY=0.5;entryDx=0;entryDy=0;exitX=0;exitY=0.5;exitDx=0;exitDy=0;" edge="1" parent="1" source="v6DdiJtf0vAYisckzw9l-23" target="v6DdiJtf0vAYisckzw9l-17">
          <mxGeometry relative="1" as="geometry">
            <Array as="points">
              <mxPoint x="80" y="420" />
              <mxPoint x="80" y="600" />
            </Array>
          </mxGeometry>
        </mxCell>
        <mxCell id="v6DdiJtf0vAYisckzw9l-23" value="queue" style="shape=parallelogram;perimeter=parallelogramPerimeter;whiteSpace=wrap;html=1;fixedSize=1;" vertex="1" parent="1">
          <mxGeometry x="120" y="390" width="120" height="60" as="geometry" />
        </mxCell>
      </root>
    </mxGraphModel>
  </diagram>
</mxfile>
